<?xml version="1.0" standalone="no"?>
<!DOCTYPE svg PUBLIC "-//W3C//DTD SVG 20010904//EN"
 "http://www.w3.org/TR/2001/REC-SVG-20010904/DTD/svg10.dtd">
<svg version="1.0" xmlns="http://www.w3.org/2000/svg"
 width="1792.000000pt" height="1792.000000pt" viewBox="0 0 1792.000000 1792.000000"
 preserveAspectRatio="xMidYMid meet">
<metadata>
Created by potrace 1.14, written by Peter Selinger 2001-2017
</metadata>
<g transform="translate(0.000000,1792.000000) scale(0.100000,-0.100000)"
fill="#000000" stroke="none">
<path d="M6855 12998 c-139 -18 -167 -23 -290 -52 -235 -55 -520 -184 -750
-339 -190 -129 -302 -223 -505 -427 -241 -242 -420 -466 -645 -810 -89 -134
-315 -504 -315 -515 0 -1 -16 -32 -36 -67 -114 -201 -263 -518 -372 -793 -37
-93 -139 -388 -147 -424 -2 -9 -14 -50 -25 -91 -38 -132 -84 -326 -105 -437
-3 -16 -7 -37 -9 -48 -2 -11 -7 -40 -11 -65 -4 -25 -9 -54 -11 -65 -16 -82
-40 -324 -49 -480 -5 -82 -5 -433 0 -525 9 -172 32 -397 50 -491 2 -9 6 -34 9
-55 8 -51 25 -142 32 -174 3 -14 7 -36 10 -50 15 -77 79 -302 118 -415 142
-414 357 -793 629 -1110 72 -84 290 -301 367 -366 36 -30 67 -56 70 -59 32
-34 192 -150 354 -256 364 -240 863 -465 1366 -614 41 -12 95 -28 120 -36 25
-7 110 -29 190 -49 80 -20 163 -40 185 -46 22 -5 49 -11 60 -14 11 -2 53 -11
92 -19 40 -9 85 -18 100 -21 16 -2 53 -9 83 -15 30 -6 64 -13 75 -15 75 -15
397 -65 478 -75 53 -6 107 -13 120 -15 12 -2 44 -6 70 -10 l48 -6 -5 -47 c-3
-26 -8 -72 -11 -102 -3 -30 -7 -71 -10 -90 -3 -19 -7 -55 -10 -79 -3 -23 -7
-55 -10 -70 -2 -14 -6 -48 -10 -76 -3 -27 -7 -59 -9 -71 -2 -12 -7 -45 -11
-75 -3 -30 -8 -66 -11 -81 -3 -15 -7 -39 -9 -55 -2 -15 -9 -62 -15 -103 -6
-41 -13 -88 -15 -105 -3 -16 -6 -39 -9 -50 -2 -11 -7 -45 -12 -75 -4 -30 -8
-57 -9 -60 -1 -3 -5 -32 -10 -65 -5 -33 -10 -62 -10 -65 -1 -3 -5 -27 -9 -55
-4 -27 -11 -72 -16 -100 -5 -27 -12 -68 -15 -90 -3 -22 -12 -74 -20 -115 -8
-41 -17 -86 -20 -100 -3 -14 -7 -36 -10 -50 -6 -30 -7 -38 -45 -255 -16 -93
-32 -192 -35 -220 -4 -27 -8 -57 -10 -65 -5 -19 -13 -82 -35 -265 -6 -49 -13
-106 -16 -125 -3 -19 -7 -145 -9 -280 -3 -181 0 -267 10 -330 48 -291 179
-496 393 -617 17 -10 141 -13 524 -13 l503 0 45 37 c197 161 292 442 292 858
0 151 -10 352 -27 520 -2 28 -7 77 -10 110 -3 33 -8 71 -10 85 -2 14 -6 52
-10 85 -3 33 -8 71 -10 85 -2 14 -6 46 -9 72 -6 52 -14 107 -21 153 -3 17 -7
53 -10 80 -3 28 -8 61 -10 75 -7 34 -32 195 -40 250 -8 52 -10 64 -20 145 -4
33 -9 68 -11 79 -2 10 -6 44 -9 75 -3 31 -8 67 -10 81 -3 14 -7 48 -11 75 -3
28 -7 62 -10 77 -2 15 -6 49 -9 75 -2 27 -7 64 -9 83 -3 19 -8 62 -11 95 -4
33 -8 74 -11 90 -2 17 -6 57 -9 90 -3 33 -7 71 -10 85 -2 14 -7 63 -10 110 -4
47 -8 98 -10 114 -2 15 -7 72 -10 125 -3 53 -8 111 -10 129 -5 29 -3 32 23 33
15 0 34 2 42 3 8 2 51 6 95 10 44 4 94 8 110 10 98 11 162 19 180 22 11 2 47
7 80 10 33 4 63 8 66 10 3 2 34 6 70 10 35 3 67 8 70 10 4 2 24 6 45 9 22 3
75 12 119 20 44 8 91 17 105 19 63 11 248 51 375 83 694 171 1265 404 1790
730 164 102 373 250 475 335 9 7 43 35 75 62 33 28 67 56 75 63 8 8 31 28 50
45 541 480 962 1107 1190 1772 56 163 124 397 144 500 3 11 14 66 25 121 11
55 23 118 26 140 4 22 8 51 10 64 2 13 7 45 11 70 3 25 8 57 10 71 2 14 6 52
9 85 4 33 8 74 10 90 4 28 10 115 20 270 5 86 6 485 0 585 -4 85 -12 180 -20
255 -3 22 -7 61 -10 87 -8 71 -23 176 -35 238 -6 30 -13 71 -16 90 -15 91 -62
280 -113 455 -91 307 -276 715 -449 985 -91 143 -221 328 -283 405 -181 222
-396 443 -544 561 -27 21 -52 41 -55 44 -29 33 -286 208 -385 263 -58 32 -271
137 -330 162 -120 50 -398 133 -540 161 -22 4 -42 8 -45 9 -11 3 -141 22 -200
30 -255 33 -741 20 -920 -25 -19 -5 -51 -11 -70 -14 -19 -3 -50 -10 -68 -15
-18 -5 -36 -10 -40 -11 -64 -8 -273 -85 -412 -152 -307 -148 -562 -356 -787
-643 -169 -216 -334 -507 -452 -800 -29 -71 -59 -143 -66 -160 -49 -111 -182
-549 -209 -685 -3 -14 -16 -74 -31 -135 -14 -60 -28 -126 -31 -145 -3 -19 -7
-41 -10 -49 -2 -8 -7 -30 -10 -50 -3 -20 -13 -85 -24 -146 -10 -60 -24 -146
-30 -190 -7 -44 -13 -87 -15 -95 -2 -8 -6 -44 -10 -80 -4 -36 -8 -72 -10 -80
-2 -8 -6 -44 -9 -80 -4 -36 -9 -76 -11 -90 -3 -14 -7 -59 -10 -100 -3 -41 -7
-91 -10 -110 -2 -19 -7 -73 -10 -120 -4 -47 -8 -101 -10 -120 -4 -45 -17 -248
-20 -320 -2 -30 -7 -138 -11 -240 -11 -244 -11 -1197 -1 -1470 5 -118 10 -249
12 -290 2 -41 6 -138 10 -215 4 -77 8 -171 10 -210 16 -308 33 -1259 26 -1411
-1 -19 -6 -20 -93 -18 -106 3 -285 13 -320 19 -13 2 -50 6 -83 9 -33 4 -72 9
-88 11 -15 3 -39 7 -54 9 -236 30 -563 122 -811 227 -349 149 -615 325 -878
584 -183 180 -309 342 -438 564 -37 64 -146 284 -146 295 0 4 -9 25 -19 49
-39 86 -126 376 -145 480 -3 15 -7 35 -10 45 -2 9 -7 37 -10 62 -3 25 -8 54
-10 66 -2 12 -7 45 -11 74 -4 29 -8 62 -10 72 -23 117 -23 828 -1 945 2 10 7
58 11 108 3 49 8 92 10 95 1 3 6 37 9 75 4 39 9 77 11 85 2 8 6 35 9 60 8 58
12 84 36 205 11 55 22 110 24 122 9 42 86 333 97 360 6 15 12 35 14 43 15 69
164 433 195 480 10 14 21 36 25 50 4 14 13 32 19 40 7 8 25 40 41 70 37 71
165 268 223 345 339 445 762 767 1321 1003 l113 48 25 60 c60 146 155 452 179
574 3 14 11 57 19 95 28 140 39 381 23 500 -29 216 -138 350 -323 399 -63 16
-270 19 -380 4z m4278 -893 c371 -38 693 -229 947 -560 162 -211 338 -569 461
-937 33 -98 97 -339 114 -428 13 -67 45 -260 50 -300 3 -25 8 -65 11 -90 21
-171 29 -319 28 -585 0 -239 -7 -449 -19 -540 -2 -16 -6 -55 -9 -85 -9 -93
-17 -163 -27 -220 -5 -30 -11 -76 -14 -101 -3 -26 -8 -58 -11 -70 -2 -13 -7
-39 -10 -58 -3 -18 -8 -43 -10 -55 -3 -11 -7 -32 -10 -46 -17 -82 -47 -212
-60 -256 -8 -28 -17 -62 -19 -74 -3 -13 -25 -89 -51 -169 -132 -418 -331 -825
-580 -1189 -47 -67 -91 -130 -99 -140 -8 -9 -48 -60 -90 -112 -253 -315 -567
-605 -900 -832 -260 -176 -580 -339 -875 -445 -52 -18 -102 -36 -110 -40 -8
-3 -19 -7 -25 -8 -5 -2 -48 -15 -95 -29 -126 -40 -464 -126 -495 -126 -1 0 -3
30 -4 68 -2 37 -4 96 -6 132 -15 345 -22 634 -31 1325 -3 242 -7 463 -9 490
-26 418 -27 1606 0 1995 2 25 6 99 9 165 4 66 9 138 11 160 3 22 7 74 10 116
3 41 7 93 9 115 3 21 8 68 11 104 3 36 10 99 15 140 5 41 12 98 15 125 4 28 8
61 11 75 2 14 6 45 9 70 3 25 8 56 10 70 3 14 7 43 10 65 3 22 10 63 16 90 15
81 17 91 23 128 5 30 29 147 52 248 2 11 6 28 8 38 64 285 188 646 305 881 62
127 66 133 157 270 83 125 101 148 214 261 219 219 466 338 761 366 35 3 65 6
66 7 5 4 167 -3 226 -9z"/>
</g>
</svg>
